# xmcd
#
# Track frame offsets:
#        150
#        30047
#        59810
#        85352
#        121622
#        148637
#        167470
#        182040
#        211817
#
# Disc length: 3192 seconds
#
# Revision: 0
# Processed by: cddbd v1.5.1PL0 Copyright (c) Steve Scherf et al.
# Submitted via: ExactAudioCopy v0.95a5
#
DISCID=6f0c7609
DTITLE=James Clay - A Double Dose of Soul
DYEAR=1960
DGENRE=Jazz
TTITLE0=New Delhi
TTITLE1=I Remember You
TTITLE2=Come Rain Or Come Shine
TTITLE3=Pockets
TTITLE4=Pavanne
TTITLE5=Linda Serene
TTITLE6=Lost Tears
TTITLE7=New Delhi (teke5)
TTITLE8=Come Rain Or Come Shine (take1)
EXTD=
EXTT0=
EXTT1=
EXTT2=
EXTT3=
EXTT4=
EXTT5=
EXTT6=
EXTT7=
EXTT8=
PLAYORDER=
